<svg width="25" height="24" viewBox="0 0 25 24" fill="none" xmlns="http://www.w3.org/2000/svg">
<path d="M20.5 10.8141C20.0272 10.6065 19.5164 10.4996 19 10.5H5.5C4.98368 10.4995 4.47288 10.6063 4 10.8136C3.33166 11.1059 2.76294 11.5865 2.36336 12.1968C1.96377 12.8071 1.75064 13.5205 1.75 14.25V19.5C1.75 19.6989 1.82902 19.8897 1.96967 20.0303C2.11032 20.171 2.30109 20.25 2.5 20.25C2.69891 20.25 2.88968 20.171 3.03033 20.0303C3.17098 19.8897 3.25 19.6989 3.25 19.5V19.125C3.25122 19.0259 3.29112 18.9312 3.36118 18.8612C3.43124 18.7911 3.52592 18.7512 3.625 18.75H20.875C20.9741 18.7512 21.0688 18.7911 21.1388 18.8612C21.2089 18.9312 21.2488 19.0259 21.25 19.125V19.5C21.25 19.6989 21.329 19.8897 21.4697 20.0303C21.6103 20.171 21.8011 20.25 22 20.25C22.1989 20.25 22.3897 20.171 22.5303 20.0303C22.671 19.8897 22.75 19.6989 22.75 19.5V14.25C22.7493 13.5206 22.5361 12.8073 22.1365 12.1971C21.7369 11.5869 21.1683 11.1063 20.5 10.8141ZM17.875 3.75H6.625C5.92881 3.75 5.26113 4.02656 4.76884 4.51884C4.27656 5.01113 4 5.67881 4 6.375V9.75C4.00002 9.77906 4.00679 9.80771 4.01979 9.8337C4.03278 9.85969 4.05163 9.8823 4.07486 9.89976C4.09809 9.91721 4.12505 9.92903 4.15363 9.93428C4.18221 9.93953 4.21162 9.93806 4.23953 9.93C4.64896 9.81025 5.07341 9.74964 5.5 9.75H5.69828C5.74456 9.75029 5.78932 9.73346 5.82393 9.70274C5.85855 9.67202 5.88058 9.62958 5.88578 9.58359C5.92669 9.21712 6.10115 8.87856 6.37586 8.63256C6.65056 8.38656 7.00625 8.25037 7.375 8.25H10C10.369 8.25003 10.725 8.38606 11 8.63209C11.275 8.87812 11.4497 9.21688 11.4906 9.58359C11.4958 9.62958 11.5179 9.67202 11.5525 9.70274C11.5871 9.73346 11.6318 9.75029 11.6781 9.75H12.8247C12.871 9.75029 12.9157 9.73346 12.9503 9.70274C12.985 9.67202 13.007 9.62958 13.0122 9.58359C13.0531 9.21736 13.2273 8.87899 13.5017 8.63303C13.7761 8.38706 14.1315 8.25072 14.5 8.25H17.125C17.494 8.25003 17.85 8.38606 18.125 8.63209C18.4 8.87812 18.5747 9.21688 18.6156 9.58359C18.6208 9.62958 18.6429 9.67202 18.6775 9.70274C18.7121 9.73346 18.7568 9.75029 18.8031 9.75H19C19.4266 9.74979 19.8511 9.81057 20.2605 9.93047C20.2884 9.93854 20.3179 9.94 20.3465 9.93473C20.3751 9.92945 20.4021 9.91759 20.4253 9.90009C20.4486 9.88258 20.4674 9.8599 20.4804 9.83385C20.4933 9.8078 20.5001 9.7791 20.5 9.75V6.375C20.5 5.67881 20.2234 5.01113 19.7312 4.51884C19.2389 4.02656 18.5712 3.75 17.875 3.75Z" fill="#0191FF"/>
</svg>
