<svg width="24" height="24" viewBox="0 0 24 24" fill="none" xmlns="http://www.w3.org/2000/svg">
<path d="M17.25 2.25H16.7152C16.6398 2.24992 16.5663 2.22717 16.5041 2.18469C16.4419 2.14222 16.3939 2.082 16.3664 2.01187C16.2223 1.64056 15.9694 1.32142 15.6409 1.09626C15.3123 0.871092 14.9235 0.750404 14.5252 0.75H9.47484C9.07655 0.750404 8.68766 0.871092 8.35912 1.09626C8.03057 1.32142 7.77769 1.64056 7.63359 2.01187C7.6061 2.082 7.55813 2.14222 7.49592 2.18469C7.43372 2.22717 7.36017 2.24992 7.28484 2.25H6.75C5.95435 2.25 5.19129 2.56607 4.62868 3.12868C4.06607 3.69129 3.75 4.45435 3.75 5.25V20.25C3.75 21.0456 4.06607 21.8087 4.62868 22.3713C5.19129 22.9339 5.95435 23.25 6.75 23.25H17.25C18.0456 23.25 18.8087 22.9339 19.3713 22.3713C19.9339 21.8087 20.25 21.0456 20.25 20.25V5.25C20.25 4.45435 19.9339 3.69129 19.3713 3.12868C18.8087 2.56607 18.0456 2.25 17.25 2.25ZM14.9939 5.25H9.00609C8.80718 5.25 8.61642 5.17098 8.47576 5.03033C8.33511 4.88968 8.25609 4.69891 8.25609 4.5C8.25609 4.30109 8.33511 4.11032 8.47576 3.96967C8.61642 3.82902 8.80718 3.75 9.00609 3.75H14.9939C15.1928 3.75 15.3836 3.82902 15.5242 3.96967C15.6649 4.11032 15.7439 4.30109 15.7439 4.5C15.7439 4.69891 15.6649 4.88968 15.5242 5.03033C15.3836 5.17098 15.1928 5.25 14.9939 5.25Z" fill="#1297C0"/>
</svg>
