<svg width="25" height="24" viewBox="0 0 25 24" fill="none" xmlns="http://www.w3.org/2000/svg">
<path d="M20.8125 10.5H14.25C13.6533 10.5 13.081 10.2629 12.659 9.84099C12.2371 9.41903 12 8.84674 12 8.25V1.6875C12 1.63777 11.9802 1.59008 11.9451 1.55492C11.9099 1.51975 11.8622 1.5 11.8125 1.5H7.5C6.70435 1.5 5.94129 1.81607 5.37868 2.37868C4.81607 2.94129 4.5 3.70435 4.5 4.5V19.5C4.5 20.2956 4.81607 21.0587 5.37868 21.6213C5.94129 22.1839 6.70435 22.5 7.5 22.5H18C18.7956 22.5 19.5587 22.1839 20.1213 21.6213C20.6839 21.0587 21 20.2956 21 19.5V10.6875C21 10.6378 20.9802 10.5901 20.9451 10.5549C20.9099 10.5198 20.8622 10.5 20.8125 10.5ZM16.5 18H9C8.80109 18 8.61032 17.921 8.46967 17.7803C8.32902 17.6397 8.25 17.4489 8.25 17.25C8.25 17.0511 8.32902 16.8603 8.46967 16.7197C8.61032 16.579 8.80109 16.5 9 16.5H16.5C16.6989 16.5 16.8897 16.579 17.0303 16.7197C17.171 16.8603 17.25 17.0511 17.25 17.25C17.25 17.4489 17.171 17.6397 17.0303 17.7803C16.8897 17.921 16.6989 18 16.5 18ZM16.5 14.25H9C8.80109 14.25 8.61032 14.171 8.46967 14.0303C8.32902 13.8897 8.25 13.6989 8.25 13.5C8.25 13.3011 8.32902 13.1103 8.46967 12.9697C8.61032 12.829 8.80109 12.75 9 12.75H16.5C16.6989 12.75 16.8897 12.829 17.0303 12.9697C17.171 13.1103 17.25 13.3011 17.25 13.5C17.25 13.6989 17.171 13.8897 17.0303 14.0303C16.8897 14.171 16.6989 14.25 16.5 14.25Z" fill="#0191FF"/>
<path d="M20.4009 8.84013L13.6598 2.09904C13.6467 2.08601 13.6301 2.07714 13.6119 2.07356C13.5938 2.06997 13.575 2.07183 13.5579 2.07889C13.5408 2.08595 13.5262 2.09791 13.5159 2.11326C13.5056 2.1286 13.5001 2.14665 13.5 2.16513V8.24998C13.5 8.44889 13.579 8.63966 13.7197 8.78031C13.8603 8.92096 14.0511 8.99998 14.25 8.99998H20.3348C20.3533 8.9999 20.3714 8.99436 20.3867 8.98405C20.4021 8.97375 20.414 8.95913 20.4211 8.94205C20.4281 8.92497 20.43 8.90618 20.4264 8.88805C20.4228 8.86991 20.414 8.85324 20.4009 8.84013Z" fill="#0191FF"/>
</svg>
