<svg width="18" height="19" viewBox="0 0 18 19" fill="none" xmlns="http://www.w3.org/2000/svg">
<path d="M11.8125 2.75H12.9375C13.3851 2.75 13.8143 2.92779 14.1307 3.24426C14.4472 3.56072 14.625 3.98995 14.625 4.4375V15.6875C14.625 16.1351 14.4472 16.5643 14.1307 16.8807C13.8143 17.1972 13.3851 17.375 12.9375 17.375H5.0625C4.61495 17.375 4.18572 17.1972 3.86926 16.8807C3.55279 16.5643 3.375 16.1351 3.375 15.6875V4.4375C3.375 3.98995 3.55279 3.56072 3.86926 3.24426C4.18572 2.92779 4.61495 2.75 5.0625 2.75H6.1875" stroke="black" stroke-width="1.125" stroke-linejoin="round"/>
<path d="M10.8939 1.625H7.10613C6.59879 1.625 6.1875 2.03629 6.1875 2.54363V2.95637C6.1875 3.46371 6.59879 3.875 7.10613 3.875H10.8939C11.4012 3.875 11.8125 3.46371 11.8125 2.95637V2.54363C11.8125 2.03629 11.4012 1.625 10.8939 1.625Z" stroke="black" stroke-width="1.125" stroke-linejoin="round"/>
</svg>
