<svg width="24" height="24" viewBox="0 0 24 24" fill="none" xmlns="http://www.w3.org/2000/svg">
<path d="M21.75 11.7155C21.7437 11.5985 21.6961 11.4875 21.6158 11.4023C21.5355 11.317 21.4276 11.2629 21.3112 11.2495L20.1094 11.055C20.0553 11.0461 20.0056 11.02 19.9675 10.9806C19.9295 10.9411 19.9053 10.8904 19.8984 10.8361C19.8755 10.6884 19.8516 10.5352 19.8187 10.3898C19.8082 10.337 19.8144 10.2822 19.8365 10.233C19.8586 10.1838 19.8955 10.1428 19.942 10.1156L21.0098 9.52266C21.1159 9.46861 21.1983 9.37747 21.2415 9.26658C21.2848 9.1557 21.2857 9.03279 21.2442 8.92125L21.0591 8.41031C21.0184 8.29839 20.938 8.20538 20.8331 8.14907C20.7282 8.09277 20.6062 8.07713 20.4905 8.10516L19.2928 8.33953C19.2393 8.3491 19.184 8.34152 19.1351 8.31787C19.0861 8.29422 19.0458 8.2557 19.02 8.20781C18.9501 8.07703 18.8742 7.94391 18.795 7.81313C18.7662 7.76653 18.7527 7.71211 18.7564 7.65747C18.7601 7.60284 18.7808 7.55073 18.8156 7.50844L19.6125 6.58781C19.6934 6.5009 19.7399 6.38748 19.7433 6.26876C19.7467 6.15004 19.7067 6.03417 19.6308 5.94281L19.283 5.52516C19.2073 5.43349 19.1003 5.37315 18.9827 5.35583C18.8651 5.33851 18.7453 5.36544 18.6464 5.43141L17.5978 6.06094C17.5513 6.08879 17.4971 6.10096 17.4432 6.09564C17.3892 6.09032 17.3384 6.0678 17.2983 6.03141C17.1825 5.92969 17.0639 5.83172 16.9528 5.74125C16.9102 5.7076 16.8794 5.66124 16.8649 5.6089C16.8504 5.55655 16.8529 5.50095 16.8722 5.45016L17.3062 4.30641C17.3535 4.19728 17.3591 4.07458 17.3218 3.96164C17.2846 3.84869 17.2071 3.75336 17.1042 3.69375L16.6312 3.41766C16.5283 3.35827 16.407 3.33897 16.2906 3.36344C16.1743 3.38792 16.0711 3.45446 16.0008 3.55031L15.2344 4.51313C15.2068 4.55497 15.1655 4.58591 15.1176 4.60063C15.0697 4.61534 15.0182 4.61291 14.9719 4.59375C14.9433 4.58203 14.7014 4.48313 14.5134 4.42031C14.4619 4.40351 14.417 4.37065 14.3855 4.32654C14.354 4.28243 14.3373 4.22938 14.3381 4.17516L14.3564 2.95313C14.3629 2.8338 14.3257 2.71619 14.2518 2.62231C14.1778 2.52843 14.0722 2.46473 13.9547 2.44313L13.418 2.34938C13.301 2.32917 13.1807 2.35211 13.0794 2.41393C12.9781 2.47574 12.9027 2.57223 12.8672 2.68547L12.4687 3.84844C12.4506 3.90006 12.4165 3.94453 12.3713 3.97532C12.3261 4.00612 12.2722 4.02161 12.2175 4.01953H11.7605C11.7062 4.02065 11.653 4.00462 11.6084 3.97373C11.5638 3.94284 11.5301 3.89867 11.512 3.8475L11.1155 2.69109C11.0806 2.57703 11.0053 2.4796 10.9037 2.41704C10.8022 2.35449 10.6813 2.3311 10.5637 2.35125L10.0261 2.445C9.9093 2.46643 9.80426 2.52951 9.73047 2.62253C9.65667 2.71555 9.61914 2.83218 9.62484 2.95078L9.64359 4.17703C9.64396 4.23207 9.62655 4.28576 9.59395 4.3301C9.56134 4.37444 9.51529 4.40707 9.46265 4.42313C9.3553 4.46484 9.12234 4.55391 9.0164 4.59328C8.92265 4.62703 8.82046 4.59 8.73796 4.49484L7.97577 3.55734C7.90584 3.46091 7.80273 3.39372 7.68626 3.36872C7.56979 3.34371 7.44819 3.36264 7.34484 3.42188L6.87327 3.69516C6.76923 3.75487 6.69097 3.85099 6.65358 3.96498C6.61619 4.07897 6.62231 4.20276 6.67077 4.3125L7.10437 5.45344C7.12328 5.50434 7.12577 5.55988 7.11147 5.61227C7.09718 5.66465 7.06683 5.71123 7.02468 5.74547C6.91077 5.83922 6.79405 5.93297 6.6778 6.03703C6.63789 6.07314 6.58746 6.09554 6.53391 6.10094C6.48035 6.10633 6.42647 6.09445 6.38015 6.06703L5.34374 5.42531C5.24422 5.36058 5.1245 5.33438 5.00704 5.35164C4.88959 5.3689 4.78246 5.42843 4.70577 5.51906L4.35937 5.93578C4.28242 6.02651 4.24165 6.14244 4.24485 6.26136C4.24805 6.38029 4.295 6.49385 4.37671 6.58031L5.17734 7.5C5.21287 7.54144 5.2341 7.59323 5.2379 7.64768C5.2417 7.70214 5.22786 7.75637 5.19843 7.80234C5.11827 7.92984 5.04187 8.06391 4.97249 8.19797C4.94654 8.24619 4.90598 8.28496 4.85663 8.30871C4.80729 8.33246 4.75168 8.33996 4.69781 8.33016L3.50202 8.09906C3.38625 8.07113 3.26424 8.0868 3.15928 8.14308C3.05432 8.19936 2.97375 8.29232 2.93296 8.40422L2.74546 8.91422C2.70402 9.0259 2.70499 9.14891 2.74818 9.25993C2.79138 9.37095 2.87381 9.46226 2.97984 9.51656L4.04765 10.1095C4.09567 10.136 4.13376 10.1774 4.15617 10.2275C4.17858 10.2776 4.18409 10.3336 4.17187 10.387L4.16062 10.4466C4.13624 10.5773 4.11374 10.7011 4.09218 10.8328C4.08473 10.8865 4.06049 10.9364 4.02294 10.9755C3.98539 11.0146 3.93645 11.0407 3.88312 11.0503L2.6789 11.2448C2.56113 11.2593 2.45266 11.3161 2.37373 11.4047C2.2948 11.4933 2.25082 11.6076 2.24999 11.7263V12.2691C2.24931 12.3882 2.29284 12.5033 2.37216 12.5921C2.45148 12.681 2.56095 12.7372 2.67937 12.75L3.88312 12.9441C3.93721 12.9529 3.987 12.9789 4.02502 13.0184C4.06305 13.0579 4.08727 13.1086 4.09405 13.163C4.11702 13.3111 4.14093 13.4639 4.17374 13.6092C4.18432 13.6621 4.17812 13.7169 4.15602 13.7661C4.13391 13.8152 4.09701 13.8563 4.05046 13.8834L2.98312 14.4773C2.87709 14.5314 2.79462 14.6225 2.75141 14.7334C2.70819 14.8443 2.70725 14.9672 2.74874 15.0788L2.93624 15.5897C2.97694 15.7015 3.05742 15.7945 3.1623 15.8508C3.26718 15.9071 3.38912 15.9228 3.50484 15.8948L4.70249 15.6628C4.75605 15.6531 4.81131 15.6606 4.86033 15.6843C4.90935 15.7079 4.94961 15.7465 4.97531 15.7945C5.04562 15.9258 5.12109 16.0584 5.20031 16.1892C5.22921 16.2358 5.24278 16.2902 5.23908 16.3449C5.23537 16.3996 5.2146 16.4517 5.17968 16.4939L4.38281 17.4141C4.30091 17.5003 4.25333 17.6135 4.24901 17.7324C4.24469 17.8512 4.28394 17.9676 4.35937 18.0595L4.70671 18.4772C4.78231 18.5689 4.88931 18.6294 5.00694 18.6467C5.12456 18.664 5.24443 18.637 5.34327 18.5709L6.39187 17.9414C6.43836 17.9136 6.49257 17.9014 6.54651 17.9067C6.60045 17.912 6.65124 17.9345 6.6914 17.9709C6.80765 18.0727 6.92577 18.1706 7.03687 18.2611C7.07947 18.2948 7.11028 18.3411 7.12485 18.3934C7.13943 18.4457 7.13701 18.5013 7.11796 18.5522L6.68343 19.6959C6.63616 19.8051 6.63062 19.9278 6.66787 20.0407C6.70511 20.1537 6.78255 20.249 6.88546 20.3086L7.35937 20.5823C7.4623 20.6418 7.58354 20.6612 7.69987 20.6368C7.8162 20.6124 7.91945 20.5459 7.98984 20.4502L8.76562 19.4963C8.83124 19.4152 8.93437 19.3791 9.01077 19.41C9.1739 19.4775 9.28312 19.5155 9.47671 19.5802C9.52828 19.597 9.57313 19.6299 9.60474 19.674C9.63635 19.718 9.65308 19.7711 9.65249 19.8253L9.63374 21.0464C9.62742 21.1657 9.66468 21.2832 9.73859 21.377C9.8125 21.4709 9.91802 21.5346 10.0355 21.5564L10.5722 21.6502C10.6891 21.6706 10.8095 21.6477 10.9109 21.5859C11.0122 21.524 11.0876 21.4274 11.123 21.3141L11.5214 20.153C11.5394 20.1013 11.5736 20.0568 11.6188 20.026C11.664 19.9952 11.718 19.9797 11.7726 19.9819H12.2297C12.2839 19.9807 12.3372 19.9967 12.3818 20.0276C12.4264 20.0585 12.4601 20.1027 12.4781 20.1539L12.8751 21.3103C12.9059 21.4107 12.968 21.4986 13.0524 21.5611C13.1367 21.6236 13.2389 21.6575 13.3439 21.6577C13.3719 21.6577 13.3998 21.6552 13.4273 21.6502L13.965 21.5564C14.0818 21.535 14.1868 21.4719 14.2606 21.3789C14.3344 21.2859 14.3719 21.1692 14.3662 21.0506L14.3475 19.8244C14.3471 19.7703 14.364 19.7176 14.3956 19.6738C14.4272 19.63 14.4719 19.5973 14.5233 19.5806C14.7033 19.5202 14.8298 19.4714 14.9409 19.4283L14.9691 19.4175C15.1144 19.3673 15.1847 19.4283 15.2255 19.4789L16.0106 20.4459C16.081 20.5416 16.1841 20.608 16.3004 20.6323C16.4166 20.6567 16.5377 20.6374 16.6406 20.5781L17.1126 20.3048C17.2159 20.2452 17.2936 20.1496 17.3308 20.0364C17.3681 19.9231 17.3623 19.8001 17.3147 19.6908L16.8816 18.5498C16.8624 18.499 16.8598 18.4435 16.874 18.391C16.8882 18.3386 16.9186 18.292 16.9608 18.2578C17.0747 18.1641 17.1914 18.0703 17.3076 17.9663C17.3478 17.93 17.3986 17.9077 17.4524 17.9024C17.5062 17.8972 17.5603 17.9094 17.6067 17.9372L18.6562 18.5653C18.7557 18.6301 18.8755 18.6564 18.993 18.6391C19.1105 18.6219 19.2176 18.5623 19.2942 18.4716L19.6411 18.0544C19.718 17.9636 19.7588 17.8477 19.7556 17.7288C19.7524 17.6099 19.7055 17.4963 19.6237 17.4098L18.8241 16.4878C18.7885 16.4464 18.7673 16.3946 18.7635 16.3401C18.7597 16.2857 18.7735 16.2314 18.803 16.1855C18.8831 16.0584 18.9595 15.9244 19.0289 15.7898C19.055 15.7417 19.0955 15.703 19.1449 15.6793C19.1942 15.6556 19.2497 15.648 19.3036 15.6577L20.498 15.8906C20.6137 15.9186 20.7357 15.9029 20.8407 15.8466C20.9457 15.7903 21.0262 15.6974 21.067 15.5855L21.2522 15.0755C21.2936 14.9639 21.2926 14.8409 21.2494 14.73C21.2062 14.619 21.1238 14.5278 21.0178 14.4736L19.9491 13.8797C19.9017 13.8529 19.8642 13.8116 19.8422 13.7619C19.8202 13.7122 19.8147 13.6567 19.8267 13.6036L19.838 13.5441C19.8623 13.4133 19.8848 13.2895 19.9064 13.1578C19.9139 13.1041 19.9381 13.0542 19.9756 13.0151C20.0132 12.9761 20.0621 12.9499 20.1155 12.9403L21.3197 12.7463C21.4377 12.732 21.5466 12.6752 21.6258 12.5865C21.705 12.4978 21.7491 12.3833 21.75 12.2644V11.7155ZM8.51015 16.1217C8.45173 16.2233 8.37005 16.3096 8.27182 16.3734C8.17358 16.4373 8.06159 16.4769 7.94505 16.4891C7.82852 16.5013 7.71075 16.4856 7.60144 16.4434C7.49213 16.4012 7.39438 16.3337 7.31624 16.2464C6.26022 15.0788 5.67713 13.5595 5.68077 11.9852C5.68441 10.4108 6.27451 8.89432 7.33593 7.73156C7.41448 7.64429 7.51264 7.57692 7.62233 7.53502C7.73201 7.49312 7.85009 7.47788 7.96682 7.49056C8.08355 7.50324 8.1956 7.54348 8.29373 7.60795C8.39186 7.67243 8.47327 7.7593 8.53124 7.86141L10.6711 11.6278C10.7353 11.7401 10.7691 11.8673 10.7691 11.9967C10.7691 12.1261 10.7353 12.2533 10.6711 12.3656L8.51015 16.1217ZM12 18.3333C11.5539 18.3334 11.1091 18.2863 10.673 18.1927C10.5593 18.1673 10.4533 18.1155 10.3634 18.0415C10.2736 17.9675 10.2024 17.8733 10.1557 17.7667C10.109 17.66 10.0881 17.5439 10.0946 17.4277C10.1012 17.3114 10.135 17.1984 10.1934 17.0977L12.3497 13.3477C12.4145 13.2347 12.5081 13.1408 12.6208 13.0755C12.7336 13.0102 12.8616 12.9759 12.9919 12.9759H17.3109C17.4273 12.9758 17.542 13.003 17.6459 13.0554C17.7497 13.1079 17.8398 13.184 17.9087 13.2777C17.9776 13.3715 18.0235 13.4801 18.0426 13.5949C18.0618 13.7096 18.0536 13.8273 18.0187 13.9383C17.1989 16.4845 14.8125 18.3333 12 18.3333ZM12.352 10.6505L10.2187 6.89391C10.1609 6.79303 10.1277 6.67997 10.1216 6.56386C10.1156 6.44775 10.137 6.33185 10.184 6.22552C10.2311 6.1192 10.3025 6.02544 10.3925 5.95181C10.4824 5.87819 10.5885 5.82677 10.702 5.80172C11.1288 5.71178 11.5638 5.66653 12 5.66672C14.8125 5.66672 17.1989 7.51547 18.0173 10.0631C18.0522 10.1741 18.0604 10.2918 18.0412 10.4065C18.0221 10.5213 17.9762 10.6299 17.9073 10.7237C17.8384 10.8174 17.7483 10.8936 17.6445 10.946C17.5406 10.9984 17.4259 11.0257 17.3095 11.0255H12.997C12.8659 11.0257 12.7371 10.9911 12.6238 10.9252C12.5104 10.8594 12.4167 10.7645 12.352 10.6505Z" fill="#FF8D37"/>
</svg>
