<svg width="32" height="32" viewBox="0 0 32 32" fill="none" xmlns="http://www.w3.org/2000/svg">
<rect width="32" height="32" rx="4" fill="white"/>
<path d="M16 6.25C12.2734 6.25 9.25 9.12766 9.25 12.6719C9.25 16.75 13.75 23.2127 15.4023 25.4448C15.4709 25.5391 15.5608 25.6157 15.6647 25.6686C15.7686 25.7215 15.8835 25.749 16 25.749C16.1165 25.749 16.2314 25.7215 16.3353 25.6686C16.4392 25.6157 16.5291 25.5391 16.5977 25.4448C18.25 23.2136 22.75 16.7533 22.75 12.6719C22.75 9.12766 19.7266 6.25 16 6.25Z" stroke="#374047" stroke-width="1.5" stroke-linecap="round" stroke-linejoin="round"/>
<path d="M16 15.25C17.2426 15.25 18.25 14.2426 18.25 13C18.25 11.7574 17.2426 10.75 16 10.75C14.7574 10.75 13.75 11.7574 13.75 13C13.75 14.2426 14.7574 15.25 16 15.25Z" stroke="#374047" stroke-width="1.5" stroke-linecap="round" stroke-linejoin="round"/>
</svg>
