<svg width="32" height="32" viewBox="0 0 32 32" fill="none" xmlns="http://www.w3.org/2000/svg">
<rect width="32" height="32" rx="4" fill="white"/>
<path d="M6.25 19.75L25.75 19.75C26.1642 19.75 26.5 19.4142 26.5 19V8.5C26.5 8.08579 26.1642 7.75 25.75 7.75L6.25 7.75C5.83579 7.75 5.5 8.08579 5.5 8.5V19C5.5 19.4142 5.83579 19.75 6.25 19.75Z" stroke="#374047" stroke-width="1.5" stroke-linejoin="round"/>
<path d="M7 22H25M8.5 24.25H23.5" stroke="#374047" stroke-width="1.5" stroke-linecap="round" stroke-linejoin="round"/>
<path d="M16 17.5C18.0711 17.5 19.75 15.8211 19.75 13.75C19.75 11.6789 18.0711 10 16 10C13.9289 10 12.25 11.6789 12.25 13.75C12.25 15.8211 13.9289 17.5 16 17.5Z" stroke="#374047" stroke-width="1.5" stroke-linecap="round" stroke-linejoin="round"/>
<path d="M26.5 11.5C25.5054 11.5 24.5516 11.1049 23.8483 10.4017C23.1451 9.69839 22.75 8.74456 22.75 7.75M5.5 11.5C5.99246 11.5 6.48009 11.403 6.93506 11.2145C7.39003 11.0261 7.80343 10.7499 8.15165 10.4017C8.49987 10.0534 8.77609 9.64003 8.96455 9.18506C9.153 8.73009 9.25 8.24246 9.25 7.75M26.5 16C25.5054 16 24.5516 16.3951 23.8483 17.0983C23.1451 17.8016 22.75 18.7554 22.75 19.75M5.5 16C5.99246 16 6.48009 16.097 6.93506 16.2855C7.39003 16.4739 7.80343 16.7501 8.15165 17.0983C8.49987 17.4466 8.77609 17.86 8.96455 18.3149C9.153 18.7699 9.25 19.2575 9.25 19.75" stroke="#374047" stroke-width="1.5" stroke-linecap="round" stroke-linejoin="round"/>
</svg>
