<svg width="25" height="24" viewBox="0 0 25 24" fill="none" xmlns="http://www.w3.org/2000/svg">
<path d="M16.9284 22.5H13.5938C13.37 22.5 13.1554 22.4111 12.9971 22.2529C12.8389 22.0946 12.75 21.88 12.75 21.6562V20.3573C12.7506 20.1578 12.7106 19.9603 12.6323 19.7768C12.5541 19.5933 12.4392 19.4276 12.2948 19.29C11.9302 18.9342 11.4005 18.7369 10.8469 18.7505C9.84562 18.7739 9 19.6551 9 20.6751V21.6562C9 21.88 8.91111 22.0946 8.75287 22.2529C8.59464 22.4111 8.38003 22.5 8.15625 22.5H4.85719C4.51481 22.5 4.17578 22.4325 3.85946 22.3015C3.54314 22.1705 3.25573 21.9785 3.01363 21.7364C2.52469 21.2474 2.25 20.5843 2.25 19.8928V16.5937C2.25 16.37 2.33889 16.1553 2.49713 15.9971C2.65536 15.8389 2.86997 15.75 3.09375 15.75H4.39266C4.82203 15.75 5.23969 15.5662 5.56875 15.2344C5.75182 15.0498 5.89659 14.8309 5.99474 14.5902C6.09288 14.3495 6.14246 14.0918 6.14062 13.8319C6.12656 12.8386 5.30906 12 4.35516 12H3.09375C2.86997 12 2.65536 11.9111 2.49713 11.7529C2.33889 11.5946 2.25 11.38 2.25 11.1562V7.85717C2.25 7.51479 2.31744 7.17576 2.44846 6.85944C2.57948 6.54313 2.77153 6.25571 3.01363 6.01361C3.50257 5.52467 4.16572 5.24998 4.85719 5.24998H7.44656C7.54602 5.24998 7.6414 5.21048 7.71173 5.14015C7.78205 5.06982 7.82156 4.97444 7.82156 4.87498V4.57123C7.82156 4.16331 7.90281 3.75948 8.06057 3.3833C8.21832 3.00712 8.44943 2.66612 8.74039 2.38022C9.03135 2.09432 9.37635 1.86924 9.75524 1.71811C10.1341 1.56698 10.5393 1.49283 10.9472 1.49998C12.6108 1.52905 13.9641 2.92405 13.9641 4.6092V4.87498C13.9641 4.97444 14.0036 5.06982 14.0739 5.14015C14.1442 5.21048 14.2396 5.24998 14.3391 5.24998H16.9284C17.2661 5.24998 17.6005 5.3165 17.9125 5.44573C18.2245 5.57497 18.508 5.76439 18.7468 6.00318C18.9856 6.24197 19.175 6.52546 19.3043 6.83745C19.4335 7.14945 19.5 7.48384 19.5 7.82155V10.4109C19.5 10.5104 19.5395 10.6058 19.6098 10.6761C19.6802 10.7464 19.7755 10.7859 19.875 10.7859H20.1403C21.855 10.7859 23.25 12.1453 23.25 13.8159C23.25 15.532 21.8723 16.9284 20.1788 16.9284H19.875C19.7755 16.9284 19.6802 16.9679 19.6098 17.0383C19.5395 17.1086 19.5 17.204 19.5 17.3034V19.9284C19.5 20.2661 19.4335 20.6005 19.3043 20.9125C19.175 21.2245 18.9856 21.508 18.7468 21.7468C18.508 21.9856 18.2245 22.175 17.9125 22.3042C17.6005 22.4335 17.2661 22.5 16.9284 22.5Z" fill="#0191FF"/>
</svg>
