<svg width="24" height="24" viewBox="0 0 24 24" fill="none" xmlns="http://www.w3.org/2000/svg">
<path d="M16.1784 22.5H12.8438C12.62 22.5 12.4054 22.4111 12.2471 22.2529C12.0889 22.0946 12 21.88 12 21.6562V20.3573C12.0006 20.1578 11.9606 19.9603 11.8823 19.7768C11.8041 19.5933 11.6892 19.4276 11.5448 19.29C11.1802 18.9342 10.6505 18.7369 10.0969 18.7505C9.09562 18.7739 8.25 19.6551 8.25 20.6751V21.6562C8.25 21.88 8.16111 22.0946 8.00287 22.2529C7.84464 22.4111 7.63003 22.5 7.40625 22.5H4.10719C3.76481 22.5 3.42578 22.4325 3.10946 22.3015C2.79314 22.1705 2.50573 21.9785 2.26363 21.7364C1.77469 21.2474 1.5 20.5843 1.5 19.8928V16.5937C1.5 16.37 1.58889 16.1553 1.74713 15.9971C1.90536 15.8389 2.11997 15.75 2.34375 15.75H3.64266C4.07203 15.75 4.48969 15.5662 4.81875 15.2344C5.00182 15.0498 5.14659 14.8309 5.24474 14.5902C5.34288 14.3495 5.39246 14.0918 5.39062 13.8319C5.37656 12.8386 4.55906 12 3.60516 12H2.34375C2.11997 12 1.90536 11.9111 1.74713 11.7529C1.58889 11.5946 1.5 11.38 1.5 11.1562V7.85717C1.5 7.51479 1.56744 7.17576 1.69846 6.85944C1.82948 6.54313 2.02153 6.25571 2.26363 6.01361C2.75257 5.52467 3.41572 5.24998 4.10719 5.24998H6.69656C6.79602 5.24998 6.8914 5.21048 6.96173 5.14015C7.03205 5.06982 7.07156 4.97444 7.07156 4.87498V4.57123C7.07156 4.16331 7.15281 3.75948 7.31057 3.3833C7.46832 3.00712 7.69943 2.66612 7.99039 2.38022C8.28135 2.09432 8.62635 1.86924 9.00524 1.71811C9.38413 1.56698 9.78933 1.49283 10.1972 1.49998C11.8608 1.52905 13.2141 2.92405 13.2141 4.6092V4.87498C13.2141 4.97444 13.2536 5.06982 13.3239 5.14015C13.3942 5.21048 13.4896 5.24998 13.5891 5.24998H16.1784C16.5161 5.24998 16.8505 5.3165 17.1625 5.44573C17.4745 5.57497 17.758 5.76439 17.9968 6.00318C18.2356 6.24197 18.425 6.52546 18.5543 6.83745C18.6835 7.14945 18.75 7.48384 18.75 7.82155V10.4109C18.75 10.5104 18.7895 10.6058 18.8598 10.6761C18.9302 10.7464 19.0255 10.7859 19.125 10.7859H19.3903C21.105 10.7859 22.5 12.1453 22.5 13.8159C22.5 15.532 21.1223 16.9284 19.4288 16.9284H19.125C19.0255 16.9284 18.9302 16.9679 18.8598 17.0383C18.7895 17.1086 18.75 17.204 18.75 17.3034V19.9284C18.75 20.2661 18.6835 20.6005 18.5543 20.9125C18.425 21.2245 18.2356 21.508 17.9968 21.7468C17.758 21.9856 17.4745 22.175 17.1625 22.3042C16.8505 22.4335 16.5161 22.5 16.1784 22.5Z" fill="#21BAB5"/>
</svg>
