<svg width="22" height="19" viewBox="0 0 22 19" fill="none" xmlns="http://www.w3.org/2000/svg">
<path d="M3.47656 2.875H18.4766C18.6518 2.87491 18.8268 2.88603 19.0006 2.90828C18.9417 2.49473 18.7997 2.0974 18.583 1.74024C18.3664 1.38308 18.0797 1.07348 17.7402 0.830123C17.4007 0.586761 17.0154 0.414673 16.6076 0.324234C16.1998 0.233796 15.7779 0.226879 15.3673 0.303902L3.03125 2.41H3.01719C2.24285 2.55807 1.55425 2.99618 1.09203 3.63484C1.7884 3.13952 2.622 2.87389 3.47656 2.875ZM18.4766 4H3.47656C2.68118 4.00086 1.91862 4.31721 1.3562 4.87963C0.79378 5.44206 0.477431 6.20461 0.476562 7V16C0.477431 16.7954 0.79378 17.5579 1.3562 18.1204C1.91862 18.6828 2.68118 18.9991 3.47656 19H18.4766C19.2719 18.9991 20.0345 18.6828 20.5969 18.1204C21.1593 17.5579 21.4757 16.7954 21.4766 16V7C21.4757 6.20461 21.1593 5.44206 20.5969 4.87963C20.0345 4.31721 19.2719 4.00086 18.4766 4ZM16.25 13C15.9533 13 15.6633 12.912 15.4166 12.7472C15.17 12.5824 14.9777 12.3481 14.8642 12.074C14.7506 11.7999 14.7209 11.4983 14.7788 11.2074C14.8367 10.9164 14.9796 10.6491 15.1893 10.4393C15.3991 10.2296 15.6664 10.0867 15.9574 10.0288C16.2483 9.97094 16.5499 10.0006 16.824 10.1142C17.0981 10.2277 17.3324 10.42 17.4972 10.6666C17.662 10.9133 17.75 11.2033 17.75 11.5C17.75 11.8978 17.592 12.2794 17.3107 12.5607C17.0294 12.842 16.6478 13 16.25 13Z" fill="#21BAB5"/>
</svg>
