<svg width="25" height="24" viewBox="0 0 25 24" fill="none" xmlns="http://www.w3.org/2000/svg">
<path d="M5.22656 4.87512H20.2266C20.4018 4.87504 20.5768 4.88615 20.7506 4.9084C20.6917 4.49486 20.5497 4.09752 20.333 3.74036C20.1164 3.3832 19.8297 3.07361 19.4902 2.83025C19.1507 2.58688 18.7654 2.4148 18.3576 2.32436C17.9498 2.23392 17.5279 2.227 17.1173 2.30402L4.78125 4.41012H4.76719C3.99285 4.55819 3.30425 4.9963 2.84203 5.63496C3.5384 5.13965 4.372 4.87401 5.22656 4.87512ZM20.2266 6.00012H5.22656C4.43118 6.00099 3.66862 6.31734 3.1062 6.87976C2.54378 7.44218 2.22743 8.20474 2.22656 9.00012V18.0001C2.22743 18.7955 2.54378 19.5581 3.1062 20.1205C3.66862 20.6829 4.43118 20.9992 5.22656 21.0001H20.2266C21.0219 20.9992 21.7845 20.6829 22.3469 20.1205C22.9093 19.5581 23.2257 18.7955 23.2266 18.0001V9.00012C23.2257 8.20474 22.9093 7.44218 22.3469 6.87976C21.7845 6.31734 21.0219 6.00099 20.2266 6.00012ZM18 15.0001C17.7033 15.0001 17.4133 14.9121 17.1666 14.7473C16.92 14.5825 16.7277 14.3482 16.6142 14.0741C16.5006 13.8001 16.4709 13.4985 16.5288 13.2075C16.5867 12.9165 16.7296 12.6492 16.9393 12.4395C17.1491 12.2297 17.4164 12.0868 17.7074 12.0289C17.9983 11.9711 18.2999 12.0008 18.574 12.1143C18.8481 12.2278 19.0824 12.4201 19.2472 12.6668C19.412 12.9134 19.5 13.2034 19.5 13.5001C19.5 13.8979 19.342 14.2795 19.0607 14.5608C18.7794 14.8421 18.3978 15.0001 18 15.0001Z" fill="#0191FF"/>
<path d="M2.25 12.1641V7.5C2.25 6.48422 2.8125 4.78125 4.76484 4.41234C6.42188 4.10156 8.0625 4.10156 8.0625 4.10156C8.0625 4.10156 9.14062 4.85156 8.25 4.85156C7.35938 4.85156 7.38281 6 8.25 6C9.11719 6 8.25 7.10156 8.25 7.10156L4.75781 11.0625L2.25 12.1641Z" fill="#0191FF"/>
</svg>
