<svg width="25" height="24" viewBox="0 0 25 24" fill="none" xmlns="http://www.w3.org/2000/svg">
    <path
        d="M12.6775 2.81823C12.6247 2.75656 12.5592 2.70705 12.4854 2.6731C12.4117 2.63916 12.3314 2.62158 12.2502 2.62158C12.169 2.62158 12.0888 2.63916 12.0151 2.6731C11.9413 2.70705 11.8758 2.75656 11.823 2.81823C10.3389 4.55401 5.5 10.5549 5.5 15.0001C5.5 19.1424 8.10812 21.7501 12.25 21.7501C16.3919 21.7501 19 19.1424 19 15.0001C19 10.5549 14.1611 4.55401 12.6775 2.81823ZM13 19.3126C12.9099 19.3128 12.8211 19.2914 12.741 19.2501C12.6609 19.2088 12.5919 19.1489 12.5398 19.0754C12.4877 19.0019 12.4541 18.9169 12.4416 18.8277C12.4292 18.7385 12.4384 18.6475 12.4684 18.5626C12.5068 18.4518 12.5791 18.3559 12.6752 18.2885C12.7712 18.2212 12.886 18.1859 13.0033 18.1876C13.7478 18.186 14.4614 17.8895 14.9879 17.363C15.5144 16.8365 15.8109 16.1229 15.8125 15.3784C15.8108 15.2611 15.8461 15.1463 15.9134 15.0503C15.9808 14.9542 16.0767 14.8819 16.1875 14.8435C16.2724 14.8135 16.3634 14.8043 16.4526 14.8167C16.5418 14.8292 16.6268 14.8628 16.7003 14.9149C16.7738 14.967 16.8337 15.036 16.875 15.1161C16.9163 15.1962 16.9377 15.285 16.9375 15.3751C16.9364 16.419 16.5212 17.4199 15.783 18.1581C15.0448 18.8963 14.0439 19.3115 13 19.3126Z"
        fill="#0191FF" />
</svg>