<svg width="24" height="24" viewBox="0 0 24 24" fill="none" xmlns="http://www.w3.org/2000/svg">
<path d="M12.4275 2.8181C12.3747 2.75643 12.3092 2.70693 12.2354 2.67298C12.1617 2.63904 12.0814 2.62146 12.0002 2.62146C11.919 2.62146 11.8388 2.63904 11.7651 2.67298C11.6913 2.70693 11.6258 2.75643 11.573 2.8181C10.0889 4.55389 5.25 10.5548 5.25 15C5.25 19.1423 7.85812 21.75 12 21.75C16.1419 21.75 18.75 19.1423 18.75 15C18.75 10.5548 13.9111 4.55389 12.4275 2.8181ZM12.75 19.3125C12.6599 19.3127 12.5711 19.2912 12.491 19.2499C12.4109 19.2087 12.3419 19.1487 12.2898 19.0752C12.2377 19.0017 12.2041 18.9168 12.1916 18.8276C12.1792 18.7383 12.1884 18.6474 12.2184 18.5625C12.2568 18.4516 12.3291 18.3557 12.4252 18.2884C12.5212 18.2211 12.636 18.1858 12.7533 18.1875C13.4978 18.1859 14.2114 17.8894 14.7379 17.3629C15.2644 16.8364 15.5609 16.1228 15.5625 15.3783C15.5608 15.261 15.5961 15.1462 15.6634 15.0501C15.7308 14.9541 15.8267 14.8818 15.9375 14.8434C16.0224 14.8134 16.1134 14.8042 16.2026 14.8166C16.2918 14.829 16.3768 14.8627 16.4503 14.9148C16.5238 14.9669 16.5837 15.0359 16.625 15.116C16.6663 15.1961 16.6877 15.2849 16.6875 15.375C16.6864 16.4189 16.2712 17.4198 15.533 18.158C14.7948 18.8962 13.7939 19.3114 12.75 19.3125Z" fill="#21BAB5"/>
</svg>
